<svg xmlns="http://www.w3.org/2000/svg" width="64" height="64" shape-rendering="geometricPrecision" text-rendering="geometricPrecision" image-rendering="optimizeQuality" fill-rule="evenodd" clip-rule="evenodd" viewBox="0 0 640 640"><path d="M640 320h-.012c0 44.138-7.807 85.076-23.433 122.801a293.973 293.973 0 0 1-8.256 18.19c-15.213 30.696-35.906 59.114-62.068 85.229h-.012l.012.011h-.012c-8.728 8.74-17.705 16.879-26.953 24.402-9.272 7.536-18.78 14.457-28.524 20.753C440.51 623.819 383.556 640 320 640v-.012c-44.126 0-85.076-7.807-122.789-23.433a293.973 293.973 0 0 1-18.189-8.256c-30.697-15.213-59.115-35.906-85.23-62.068v-.011l-.011.011v-.011c-8.74-8.729-16.878-17.717-24.402-26.954-7.536-9.271-14.457-18.78-20.752-28.524C16.193 440.51.012 383.556.012 320v-.011h.012c0-44.115 7.807-85.064 23.433-122.777a293.973 293.973 0 0 1 8.256-18.19c15.213-30.697 35.906-59.114 62.068-85.229h.012l-.012-.012h.012c8.728-8.74 17.704-16.878 26.953-24.402 9.271-7.535 18.78-14.457 28.524-20.752C199.503 16.194 256.456.001 320 .001h.012v.023c44.126 0 85.075 7.807 122.789 23.434a287.148 287.148 0 0 1 18.189 8.256c30.697 15.212 59.115 35.906 85.23 62.067v.012l.01-.012v.012c8.741 8.729 16.88 17.717 24.403 26.953 7.535 9.272 14.457 18.78 20.752 28.524C623.819 199.503 640 256.456 640 320zM321.252 565.212H320v-.012c-33.815 0-65.186-5.988-94.088-17.953a225.037 225.037 0 0 1-13.937-6.319c-23.528-11.67-45.296-27.52-65.304-47.587h-.024.024-.024a271.512 271.512 0 0 1-18.685-20.646 245.912 245.912 0 0 1-15.91-21.862C87.202 412.34 74.8 368.698 74.8 320h.012c0-33.816 5.976-65.186 17.941-94.088 1.96-4.736 4.087-9.39 6.33-13.937 11.67-23.528 27.52-45.296 47.588-65.304l-.024-.024h.024v.024-.024c6.673-6.685 13.56-12.921 20.646-18.685a247.486 247.486 0 0 1 21.85-15.91C227.66 87.203 271.304 74.801 320 74.801v.011h1.252v490.4z"/></svg>